<svg width="500" height="500" viewBox="0 0 500 500" fill="none" xmlns="http://www.w3.org/2000/svg">
<rect x="120.196" y="218.022" width="20" height="20" transform="rotate(41.1737 120.196 218.022)" fill="#EE8CB2"/>
<rect x="120.196" y="218.022" width="20" height="20" transform="rotate(41.1737 120.196 218.022)" fill="#424880"/>
<rect x="135.25" y="231.189" width="20" height="20" transform="rotate(41.1737 135.25 231.189)" fill="#EE8CB2"/>
<rect x="135.25" y="231.189" width="20" height="20" transform="rotate(41.1737 135.25 231.189)" fill="#424880"/>
<rect x="150.305" y="244.356" width="20" height="20" transform="rotate(41.1737 150.305 244.356)" fill="#EE8CB2"/>
<rect x="155.944" y="222.718" width="20" height="20" transform="rotate(41.1737 155.944 222.718)" fill="#EE8CB2"/>
<rect x="150.305" y="244.356" width="20" height="20" transform="rotate(41.1737 150.305 244.356)" fill="#424880"/>
<rect x="155.944" y="222.718" width="20" height="20" transform="rotate(41.1737 155.944 222.718)" fill="#424880"/>
<rect x="176.639" y="214.247" width="20" height="20" transform="rotate(41.1737 176.639 214.247)" fill="#424880"/>
<rect x="197.333" y="205.776" width="20" height="20" transform="rotate(41.1737 197.333 205.776)" fill="#424880"/>
<rect x="218.027" y="197.306" width="20" height="20" transform="rotate(41.1737 218.027 197.306)" fill="#424880"/>
<rect x="238.721" y="188.835" width="20" height="20" transform="rotate(41.1737 238.721 188.835)" fill="#424880"/>
<rect x="259.415" y="180.364" width="20" height="20" transform="rotate(41.1737 259.415 180.364)" fill="#7881D0"/>
<rect x="280.109" y="171.893" width="20" height="20" transform="rotate(41.1737 280.109 171.893)" fill="#7881D0"/>
<rect x="300.803" y="163.422" width="20" height="20" transform="rotate(41.1737 300.803 163.422)" fill="#7881D0"/>
<rect x="321.497" y="154.951" width="20" height="20" transform="rotate(41.1737 321.497 154.951)" fill="#7881D0"/>
<rect x="165.359" y="257.523" width="20" height="20" transform="rotate(41.1737 165.359 257.523)" fill="#EE8CB2"/>
<rect x="170.999" y="235.885" width="20" height="20" transform="rotate(41.1737 170.999 235.885)" fill="#EE8CB2"/>
<rect x="165.359" y="257.523" width="20" height="20" transform="rotate(41.1737 165.359 257.523)" fill="#424880"/>
<rect x="170.999" y="235.885" width="20" height="20" transform="rotate(41.1737 170.999 235.885)" fill="#424880"/>
<rect x="191.693" y="227.414" width="20" height="20" transform="rotate(41.1737 191.693 227.414)" fill="#424880"/>
<rect x="212.387" y="218.943" width="20" height="20" transform="rotate(41.1737 212.387 218.943)" fill="#7881D0"/>
<rect x="233.081" y="210.473" width="20" height="20" transform="rotate(41.1737 233.081 210.473)" fill="#7881D0"/>
<rect x="253.775" y="202.002" width="20" height="20" transform="rotate(41.1737 253.775 202.002)" fill="#7881D0"/>
<rect x="274.469" y="193.531" width="20" height="20" transform="rotate(41.1737 274.469 193.531)" fill="#7881D0"/>
<rect x="295.163" y="185.06" width="20" height="20" transform="rotate(41.1737 295.163 185.06)" fill="#7881D0"/>
<rect x="315.857" y="176.589" width="20" height="20" transform="rotate(41.1737 315.857 176.589)" fill="#7881D0"/>
<rect x="180.413" y="270.69" width="20" height="20" transform="rotate(41.1737 180.413 270.69)" fill="#EE8CB2"/>
<rect x="186.053" y="249.052" width="20" height="20" transform="rotate(41.1737 186.053 249.052)" fill="#EE8CB2"/>
<rect x="180.413" y="270.69" width="20" height="20" transform="rotate(41.1737 180.413 270.69)" fill="#7881D0"/>
<rect x="186.053" y="249.052" width="20" height="20" transform="rotate(41.1737 186.053 249.052)" fill="#7881D0"/>
<rect x="206.747" y="240.581" width="20" height="20" transform="rotate(41.1737 206.747 240.581)" fill="#7881D0"/>
<rect x="227.441" y="232.11" width="20" height="20" transform="rotate(41.1737 227.441 232.11)" fill="#7881D0"/>
<rect x="248.135" y="223.639" width="20" height="20" transform="rotate(41.1737 248.135 223.639)" fill="#7881D0"/>
<rect x="268.829" y="215.168" width="20" height="20" transform="rotate(41.1737 268.829 215.168)" fill="#7881D0"/>
<rect x="289.523" y="206.698" width="20" height="20" transform="rotate(41.1737 289.523 206.698)" fill="#7881D0"/>
<rect x="310.218" y="198.227" width="20" height="20" transform="rotate(41.1737 310.218 198.227)" fill="#7881D0"/>
<rect x="330.911" y="189.756" width="20" height="20" transform="rotate(41.1737 330.911 189.756)" fill="#7881D0"/>
<rect x="195.468" y="283.857" width="20" height="20" transform="rotate(41.1737 195.468 283.857)" fill="#EE8CB2"/>
<rect x="201.107" y="262.219" width="20" height="20" transform="rotate(41.1737 201.107 262.219)" fill="#EE8CB2"/>
<rect x="195.468" y="283.857" width="20" height="20" transform="rotate(41.1737 195.468 283.857)" fill="#7881D0"/>
<rect x="201.107" y="262.219" width="20" height="20" transform="rotate(41.1737 201.107 262.219)" fill="#7881D0"/>
<rect x="221.802" y="253.748" width="20" height="20" transform="rotate(41.1737 221.802 253.748)" fill="#7881D0"/>
<rect x="242.496" y="245.277" width="20" height="20" transform="rotate(41.1737 242.496 245.277)" fill="#7881D0"/>
<rect x="263.19" y="236.806" width="20" height="20" transform="rotate(41.1737 263.19 236.806)" fill="#7881D0"/>
<rect x="283.884" y="228.335" width="20" height="20" transform="rotate(41.1737 283.884 228.335)" fill="#7881D0"/>
<rect x="304.578" y="219.864" width="20" height="20" transform="rotate(41.1737 304.578 219.864)" fill="#7881D0"/>
<rect x="210.522" y="297.024" width="20" height="20" transform="rotate(41.1737 210.522 297.024)" fill="#EE8CB2"/>
<rect x="216.162" y="275.386" width="20" height="20" transform="rotate(41.1737 216.162 275.386)" fill="#EE8CB2"/>
<rect x="210.522" y="297.024" width="20" height="20" transform="rotate(41.1737 210.522 297.024)" fill="#7881D0"/>
<rect x="216.162" y="275.386" width="20" height="20" transform="rotate(41.1737 216.162 275.386)" fill="#7881D0"/>
<rect x="236.856" y="266.915" width="20" height="20" transform="rotate(41.1737 236.856 266.915)" fill="#7881D0"/>
<rect x="257.55" y="258.444" width="20" height="20" transform="rotate(41.1737 257.55 258.444)" fill="#7881D0"/>
<rect x="278.244" y="249.973" width="20" height="20" transform="rotate(41.1737 278.244 249.973)" fill="#7881D0"/>
<rect x="298.938" y="241.502" width="20" height="20" transform="rotate(41.1737 298.938 241.502)" fill="#7881D0"/>
<rect x="319.632" y="233.031" width="20" height="20" transform="rotate(41.1737 319.632 233.031)" fill="#7881D0"/>
<rect x="225.576" y="310.19" width="20" height="20" transform="rotate(41.1737 225.576 310.19)" fill="#7881D0"/>
<rect x="231.216" y="288.553" width="20" height="20" transform="rotate(41.1737 231.216 288.553)" fill="#7881D0"/>
<rect x="225.576" y="310.19" width="20" height="20" transform="rotate(41.1737 225.576 310.19)" fill="#7881D0"/>
<rect x="231.216" y="288.553" width="20" height="20" transform="rotate(41.1737 231.216 288.553)" fill="#7881D0"/>
<rect x="251.91" y="280.082" width="20" height="20" transform="rotate(41.1737 251.91 280.082)" fill="#7881D0"/>
<rect x="272.604" y="271.611" width="20" height="20" transform="rotate(41.1737 272.604 271.611)" fill="#7881D0"/>
<rect x="293.298" y="263.14" width="20" height="20" transform="rotate(41.1737 293.298 263.14)" fill="#7881D0"/>
<rect x="313.992" y="254.669" width="20" height="20" transform="rotate(41.1737 313.992 254.669)" fill="#7881D0"/>
<rect x="240.631" y="323.357" width="20" height="20" transform="rotate(41.1737 240.631 323.357)" fill="#7881D0"/>
<rect x="246.271" y="301.72" width="20" height="20" transform="rotate(41.1737 246.271 301.72)" fill="#7881D0"/>
<rect x="240.631" y="323.357" width="20" height="20" transform="rotate(41.1737 240.631 323.357)" fill="#7881D0"/>
<rect x="246.271" y="301.72" width="20" height="20" transform="rotate(41.1737 246.271 301.72)" fill="#7881D0"/>
<rect x="266.964" y="293.249" width="20" height="20" transform="rotate(41.1737 266.964 293.249)" fill="#7881D0"/>
<rect x="287.659" y="284.778" width="20" height="20" transform="rotate(41.1737 287.659 284.778)" fill="#7881D0"/>
<rect x="255.685" y="336.524" width="20" height="20" transform="rotate(41.1737 255.685 336.524)" fill="#7881D0"/>
<rect x="261.325" y="314.886" width="20" height="20" transform="rotate(41.1737 261.325 314.886)" fill="#7881D0"/>
<rect x="255.685" y="336.524" width="20" height="20" transform="rotate(41.1737 255.685 336.524)" fill="#7881D0"/>
<rect x="261.325" y="314.886" width="20" height="20" transform="rotate(41.1737 261.325 314.886)" fill="#7881D0"/>
<rect x="282.019" y="306.416" width="20" height="20" transform="rotate(41.1737 282.019 306.416)" fill="#7881D0"/>
<rect x="302.713" y="297.945" width="20" height="20" transform="rotate(41.1737 302.713 297.945)" fill="#7881D0"/>
<rect x="276.379" y="328.053" width="20" height="20" transform="rotate(41.1737 276.379 328.053)" fill="#7881D0"/>
<rect x="291.433" y="341.22" width="20" height="20" transform="rotate(41.1737 291.433 341.22)" fill="#EE8CB2"/>
<rect x="270.739" y="349.691" width="20" height="20" transform="rotate(41.1737 270.739 349.691)" fill="#EE8CB2"/>
<rect x="270.739" y="349.691" width="20" height="20" transform="rotate(41.1737 270.739 349.691)" fill="#7881D0"/>
<rect x="140.89" y="209.551" width="20" height="20" transform="rotate(41.1737 140.89 209.551)" fill="#424880"/>
<rect x="161.584" y="201.081" width="20" height="20" transform="rotate(41.1737 161.584 201.081)" fill="#424880"/>
<rect x="182.278" y="192.61" width="20" height="20" transform="rotate(41.1737 182.278 192.61)" fill="#424880"/>
<rect x="202.972" y="184.139" width="20" height="20" transform="rotate(41.1737 202.972 184.139)" fill="#424880"/>
<rect x="223.666" y="175.668" width="20" height="20" transform="rotate(41.1737 223.666 175.668)" fill="#424880"/>
<rect x="244.36" y="167.197" width="20" height="20" transform="rotate(41.1737 244.36 167.197)" fill="#424880"/>
<rect x="265.055" y="158.726" width="20" height="20" transform="rotate(41.1737 265.055 158.726)" fill="#424880"/>
<rect x="285.749" y="150.255" width="20" height="20" transform="rotate(41.1737 285.749 150.255)" fill="#424880"/>
<rect x="306.443" y="141.784" width="20" height="20" transform="rotate(41.1737 306.443 141.784)" fill="#7881D0"/>
<rect x="327.137" y="133.313" width="20" height="20" transform="rotate(41.1737 327.137 133.313)" fill="#7881D0"/>
<rect x="347.831" y="124.843" width="20" height="20" transform="rotate(41.1737 347.831 124.843)" fill="#7881D0"/>
<rect x="342.191" y="146.48" width="20" height="20" transform="rotate(41.1737 342.191 146.48)" fill="#7881D0"/>
<rect x="336.551" y="168.118" width="20" height="20" transform="rotate(41.1737 336.551 168.118)" fill="#7881D0"/>
<rect x="325.272" y="211.394" width="20" height="20" transform="rotate(41.1737 325.272 211.394)" fill="#7881D0"/>
<rect x="319.632" y="233.031" width="20" height="20" transform="rotate(41.1737 319.632 233.031)" fill="#7881D0"/>
<rect x="313.992" y="254.669" width="20" height="20" transform="rotate(41.1737 313.992 254.669)" fill="#7881D0"/>
<rect x="308.353" y="276.307" width="20" height="20" transform="rotate(41.1737 308.353 276.307)" fill="#7881D0"/>
<rect x="297.073" y="319.583" width="20" height="20" transform="rotate(41.1737 297.073 319.583)" fill="#7881D0"/>
<rect x="291.433" y="341.22" width="20" height="20" transform="rotate(41.1737 291.433 341.22)" fill="#7881D0"/>
<rect x="285.794" y="362.858" width="20" height="20" transform="rotate(41.1737 285.794 362.858)" fill="#7881D0"/>
</svg>
