<svg width="512" height="512" viewBox="0 0 512 512" fill="none" xmlns="http://www.w3.org/2000/svg">
<rect x="193" y="202" width="18" height="18" fill="#25436E"/>
<rect x="139" y="328" width="18" height="18" fill="#213A5F"/>
<rect x="157" y="346" width="18" height="18" fill="#3C649F"/>
<rect x="175" y="364" width="18" height="18" fill="#3C649F"/>
<rect x="193" y="364" width="18" height="18" fill="#3C649F"/>
<rect x="175" y="184" width="18" height="18" fill="#3C649F"/>
<rect x="103" y="310" width="18" height="18" fill="#3C649F"/>
<rect x="121" y="310" width="18" height="18" fill="#213A5F"/>
<rect x="121" y="328" width="18" height="18" fill="#3C649F"/>
<rect x="175" y="166" width="18" height="18" fill="#3C649F"/>
<rect x="103" y="292" width="18" height="18" fill="#213A5F"/>
<rect x="157" y="148" width="18" height="18" fill="#3C649F"/>
<rect x="85" y="274" width="18" height="18" fill="#3C649F"/>
<rect x="157" y="130" width="18" height="18" fill="#73ACFF"/>
<rect x="85" y="256" width="18" height="18" fill="#3C649F"/>
<rect x="157" y="112" width="18" height="18" fill="#73ACFF"/>
<rect x="139" y="112" width="18" height="18" fill="#73ACFF"/>
<rect x="121" y="130" width="18" height="18" fill="#73ACFF"/>
<rect x="121" y="148" width="18" height="18" fill="#73ACFF"/>
<rect x="85" y="238" width="18" height="18" fill="#3C649F"/>
<rect x="103" y="220" width="18" height="18" fill="#3C649F"/>
<rect x="103" y="238" width="18" height="18" fill="#3C649F"/>
<rect x="103" y="166" width="18" height="18" fill="#73ACFF"/>
<rect x="103" y="184" width="18" height="18" fill="#73ACFF"/>
<rect x="121" y="202" width="18" height="18" fill="#73ACFF"/>
<rect x="121" y="184" width="18" height="18" fill="#73ACFF"/>
<rect x="121" y="166" width="18" height="18" fill="#73ACFF"/>
<rect x="121" y="238" width="18" height="18" fill="#3C649F"/>
<rect x="121" y="220" width="18" height="18" fill="#213A5F"/>
<rect x="139" y="256" width="18" height="18" fill="#3C649F"/>
<rect x="121" y="256" width="18" height="18" fill="#3C649F"/>
<rect x="103" y="256" width="18" height="18" fill="#3C649F"/>
<rect x="139" y="274" width="18" height="18" fill="#3C649F"/>
<rect x="121" y="274" width="18" height="18" fill="#3C649F"/>
<rect x="103" y="274" width="18" height="18" fill="#3C649F"/>
<rect x="139" y="292" width="18" height="18" fill="#3C649F"/>
<rect x="121" y="292" width="18" height="18" fill="#3C649F"/>
<rect x="139" y="310" width="18" height="18" fill="#3C649F"/>
<rect x="247" y="202" width="18" height="18" fill="#213A5F"/>
<rect x="247" y="220" width="18" height="18" fill="#25436E"/>
<rect x="247" y="238" width="18" height="18" fill="#25436E"/>
<rect x="229" y="238" width="18" height="18" fill="#25436E"/>
<rect x="211" y="238" width="18" height="18" fill="#25436E"/>
<rect x="193" y="238" width="18" height="18" fill="#25436E"/>
<rect x="193" y="220" width="18" height="18" fill="#25436E"/>
<rect x="175" y="238" width="18" height="18" fill="#25436E"/>
<rect x="175" y="220" width="18" height="18" fill="#25436E"/>
<rect x="175" y="202" width="18" height="18" fill="#3C649F"/>
<rect x="157" y="238" width="18" height="18" fill="#3C649F"/>
<rect x="157" y="220" width="18" height="18" fill="#3C649F"/>
<rect x="157" y="202" width="18" height="18" fill="#3C649F"/>
<rect x="157" y="184" width="18" height="18" fill="#3C649F"/>
<rect x="157" y="166" width="18" height="18" fill="#3C649F"/>
<rect x="139" y="238" width="18" height="18" fill="#213A5F"/>
<rect x="139" y="220" width="18" height="18" fill="#3C649F"/>
<rect x="139" y="202" width="18" height="18" fill="#3C649F"/>
<rect x="139" y="184" width="18" height="18" fill="#3C649F"/>
<rect x="139" y="166" width="18" height="18" fill="#73ACFF"/>
<rect x="139" y="148" width="18" height="18" fill="#73ACFF"/>
<rect x="139" y="130" width="18" height="18" fill="#73ACFF"/>
<rect x="247" y="256" width="18" height="18" fill="#25436E"/>
<rect x="229" y="256" width="18" height="18" fill="#25436E"/>
<rect x="211" y="256" width="18" height="18" fill="#25436E"/>
<rect x="193" y="256" width="18" height="18" fill="#25436E"/>
<rect x="175" y="256" width="18" height="18" fill="#25436E"/>
<rect x="157" y="256" width="18" height="18" fill="#213A5F"/>
<rect x="247" y="274" width="18" height="18" fill="#25436E"/>
<rect x="229" y="274" width="18" height="18" fill="#25436E"/>
<rect x="211" y="274" width="18" height="18" fill="#25436E"/>
<rect x="193" y="274" width="18" height="18" fill="#25436E"/>
<rect x="175" y="274" width="18" height="18" fill="#213A5F"/>
<rect x="157" y="274" width="18" height="18" fill="#3C649F"/>
<rect x="247" y="292" width="18" height="18" fill="#25436E"/>
<rect x="229" y="292" width="18" height="18" fill="#25436E"/>
<rect x="211" y="292" width="18" height="18" fill="#25436E"/>
<rect x="193" y="292" width="18" height="18" fill="#25436E"/>
<rect x="175" y="292" width="18" height="18" fill="#25436E"/>
<rect x="157" y="292" width="18" height="18" fill="#3C649F"/>
<rect x="247" y="310" width="18" height="18" fill="#25436E"/>
<rect x="229" y="310" width="18" height="18" fill="#25436E"/>
<rect x="211" y="310" width="18" height="18" fill="#25436E"/>
<rect x="193" y="310" width="18" height="18" fill="#25436E"/>
<rect x="175" y="310" width="18" height="18" fill="#3C649F"/>
<rect x="157" y="310" width="18" height="18" fill="#3C649F"/>
<rect x="247" y="328" width="18" height="18" fill="#25436E"/>
<rect x="247" y="346" width="18" height="18" fill="#25436E"/>
<rect x="247" y="364" width="18" height="18" fill="#3C649F"/>
<rect x="229" y="328" width="18" height="18" fill="#25436E"/>
<rect x="229" y="346" width="18" height="18" fill="#3C649F"/>
<rect x="229" y="364" width="18" height="18" fill="#3C649F"/>
<rect x="211" y="328" width="18" height="18" fill="#3C649F"/>
<rect x="211" y="346" width="18" height="18" fill="#3C649F"/>
<rect x="211" y="364" width="18" height="18" fill="#3C649F"/>
<rect x="193" y="328" width="18" height="18" fill="#3C649F"/>
<rect x="193" y="346" width="18" height="18" fill="#3C649F"/>
<rect x="175" y="328" width="18" height="18" fill="#3C649F"/>
<rect x="175" y="346" width="18" height="18" fill="#3C649F"/>
<rect x="157" y="328" width="18" height="18" fill="#3C649F"/>
<rect x="229" y="220" width="18" height="18" fill="#25436E"/>
<rect x="211" y="220" width="18" height="18" fill="#25436E"/>
<rect x="265" y="202" width="18" height="18" fill="#213A5F"/>
<rect x="265" y="220" width="18" height="18" fill="#213A5F"/>
<rect x="265" y="238" width="18" height="18" fill="#25436E"/>
<rect x="265" y="256" width="18" height="18" fill="#25436E"/>
<rect x="265" y="274" width="18" height="18" fill="#25436E"/>
<rect x="265" y="292" width="18" height="18" fill="#25436E"/>
<rect x="265" y="310" width="18" height="18" fill="#25436E"/>
<rect x="265" y="328" width="18" height="18" fill="#25436E"/>
<rect x="265" y="346" width="18" height="18" fill="#25436E"/>
<rect x="265" y="184" width="18" height="18" fill="#213A5F"/>
<rect x="265" y="184" width="18" height="18" fill="#213A5F"/>
<rect x="265" y="184" width="18" height="18" fill="#213A5F"/>
<rect x="265" y="184" width="18" height="18" fill="#213A5F"/>
<rect x="283" y="202" width="18" height="18" fill="#213A5F"/>
<rect x="283" y="220" width="18" height="18" fill="#213A5F"/>
<rect x="283" y="238" width="18" height="18" fill="#213A5F"/>
<rect x="283" y="256" width="18" height="18" fill="#213A5F"/>
<rect x="283" y="274" width="18" height="18" fill="#213A5F"/>
<rect x="283" y="292" width="18" height="18" fill="#25436E"/>
<rect x="283" y="310" width="18" height="18" fill="#25436E"/>
<rect x="283" y="328" width="18" height="18" fill="#25436E"/>
<rect x="283" y="346" width="18" height="18" fill="#25436E"/>
<rect x="283" y="184" width="18" height="18" fill="#213A5F"/>
<rect x="283" y="184" width="18" height="18" fill="#213A5F"/>
<rect x="283" y="184" width="18" height="18" fill="#213A5F"/>
<rect x="283" y="184" width="18" height="18" fill="#213A5F"/>
<rect x="301" y="184" width="18" height="18" fill="#213A5F"/>
<rect x="319" y="202" width="18" height="18" fill="#213A5F"/>
<rect x="301" y="202" width="18" height="18" fill="#213A5F"/>
<rect x="301" y="220" width="18" height="18" fill="#213A5F"/>
<rect x="301" y="238" width="18" height="18" fill="#213A5F"/>
<rect x="319" y="238" width="18" height="18" fill="#213A5F"/>
<rect x="337" y="238" width="18" height="18" fill="#213A5F"/>
<rect x="301" y="256" width="18" height="18" fill="#213A5F"/>
<rect x="319" y="256" width="18" height="18" fill="#213A5F"/>
<rect x="337" y="256" width="18" height="18" fill="#213A5F"/>
<rect x="355" y="256" width="18" height="18" fill="#213A5F"/>
<rect x="301" y="274" width="18" height="18" fill="#213A5F"/>
<rect x="319" y="274" width="18" height="18" fill="#213A5F"/>
<rect x="337" y="274" width="18" height="18" fill="#213A5F"/>
<rect x="355" y="274" width="18" height="18" fill="#213A5F"/>
<rect x="373" y="274" width="18" height="18" fill="#213A5F"/>
<rect x="301" y="292" width="18" height="18" fill="#213A5F"/>
<rect x="319" y="292" width="18" height="18" fill="#213A5F"/>
<rect x="337" y="292" width="18" height="18" fill="#213A5F"/>
<rect x="355" y="292" width="18" height="18" fill="#213A5F"/>
<rect x="301" y="310" width="18" height="18" fill="#213A5F"/>
<rect x="319" y="310" width="18" height="18" fill="#213A5F"/>
<rect x="337" y="310" width="18" height="18" fill="#213A5F"/>
<rect x="301" y="328" width="18" height="18" fill="#25436E"/>
<rect x="319" y="328" width="18" height="18" fill="#213A5F"/>
<rect x="319" y="220" width="18" height="18" fill="#213A5F"/>
<rect x="337" y="220" width="18" height="18" fill="#213A5F"/>
<rect x="355" y="238" width="18" height="18" fill="#213A5F"/>
<rect x="373" y="256" width="18" height="18" fill="#213A5F"/>
<rect x="391" y="238" width="18" height="18" fill="#213A5F"/>
<rect x="391" y="274" width="18" height="18" fill="#213A5F"/>
<rect x="373" y="292" width="18" height="18" fill="#213A5F"/>
<rect x="355" y="310" width="18" height="18" fill="#213A5F"/>
<rect x="337" y="328" width="18" height="18" fill="#213A5F"/>
<rect x="319" y="346" width="18" height="18" fill="#213A5F"/>
<rect x="301" y="346" width="18" height="18" fill="#25436E"/>
<rect x="283" y="364" width="18" height="18" fill="#25436E"/>
<rect x="265" y="364" width="18" height="18" fill="#25436E"/>
<rect x="247" y="382" width="18" height="18" fill="#3C649F"/>
<rect x="211" y="382" width="18" height="18" fill="#3C649F"/>
<rect x="229" y="382" width="18" height="18" fill="#3C649F"/>
<rect x="409" y="256" width="18" height="18" fill="#213A5F"/>
<rect x="409" y="238" width="18" height="18" fill="#213A5F"/>
<rect x="391" y="256" width="18" height="18" fill="#213A5F"/>
</svg>
